<?xml version="1.0" encoding="utf-8"?>
<!-- Generator: Adobe Illustrator 27.7.0, SVG Export Plug-In . SVG Version: 6.00 Build 0)  -->
<svg version="1.1" xmlns="http://www.w3.org/2000/svg" xmlns:xlink="http://www.w3.org/1999/xlink" x="0px" y="0px"
	 viewBox="0 0 100 100" style="enable-background:new 0 0 100 100;" xml:space="preserve">
<style type="text/css">
	.st0{display:none;}
	.st1{display:inline;fill:#ED2024;}
	.st2{fill:#FFFFFF;}
</style>
<g id="Layer_2" class="st0">
	<rect x="-254.6" y="-164.4" class="st1" width="770.3" height="288"/>
</g>
<g id="Layer_1">
	<g>
		<g>
			<g>
				<path class="st2" d="M32.8,66.1c1.5,0.9,3.8,3,5.7,3.1c1.9,0,4.2-2,5.8-2.8c-0.8,0-1.6,0-2.3,0c1.5,0.9,3.8,3,5.7,3.1
					c1.9,0,4.2-2,5.8-2.8c-0.8,0-1.6,0-2.3,0c1.5,0.9,3.8,3,5.7,3.1c1.9,0,4.2-2,5.8-2.8c-0.8,0-1.6,0-2.3,0c1.5,0.9,3,1.8,4.5,2.7
					c2.6,1.5,4.9-2.4,2.3-4c-1.5-0.9-3.8-3-5.7-3.1c-1.9,0-4.2,2-5.8,2.8c0.8,0,1.6,0,2.3,0c-1.5-0.9-3.8-3-5.7-3.1
					c-1.9,0-4.2,2-5.8,2.8c0.8,0,1.6,0,2.3,0c-1.5-0.9-3.8-3-5.7-3.1c-1.9,0-4.2,2-5.8,2.8c0.8,0,1.6,0,2.3,0
					c-1.5-0.9-3-1.8-4.5-2.7C32.6,60.6,30.3,64.6,32.8,66.1L32.8,66.1z"/>
			</g>
		</g>
		<g>
			<g>
				<path class="st2" d="M83.9,50c-0.3,14.2-9,27.2-22.6,32c-13.1,4.6-28,0.6-37.1-9.9C14.8,61.2,13.5,45,20.8,32.7
					C28,20.6,42.4,14,56.2,16.6C72.3,19.7,83.6,33.8,83.9,50c0.1,3,4.7,3,4.6,0c-0.3-16.1-10.1-30.6-25.4-36.2
					C48,8.2,30.4,13.1,20.1,25.6c-10.2,12.6-11.5,30.8-3,44.6c8.4,13.6,24.6,20.6,40.3,17.6C75.6,84.4,88.2,68.2,88.6,50
					C88.6,47,84,47,83.9,50z"/>
			</g>
		</g>
		<g>
			<ellipse transform="matrix(0.1602 -0.9871 0.9871 0.1602 13.4571 97.1204)" class="st2" cx="63.8" cy="40.7" rx="4.9" ry="4.9"/>
			<ellipse transform="matrix(0.9871 -0.1602 0.1602 0.9871 -6.0443 6.3228)" class="st2" cx="36.2" cy="40.7" rx="4.9" ry="4.9"/>
		</g>
	</g>
</g>
</svg>
