<?xml version="1.0" encoding="utf-8"?>
<!-- Generator: Adobe Illustrator 27.7.0, SVG Export Plug-In . SVG Version: 6.00 Build 0)  -->
<svg version="1.1" xmlns="http://www.w3.org/2000/svg" xmlns:xlink="http://www.w3.org/1999/xlink" x="0px" y="0px"
	 viewBox="0 0 100 100" style="enable-background:new 0 0 100 100;" xml:space="preserve">
<style type="text/css">
	.st0{display:none;}
	.st1{display:inline;fill:#ED2024;}
	.st2{fill:#FFFFFF;}
</style>
<g id="Layer_2" class="st0">
	<rect x="-374.8" y="-164.4" class="st1" width="770.3" height="288"/>
</g>
<g id="Layer_1">
	<g>
		<g>
			<path class="st2" d="M83.9,50c-0.3,14.2-9,27.2-22.6,32c-13.1,4.6-28,0.6-37.1-9.9C14.8,61.2,13.5,45,20.8,32.7
				C28,20.6,42.4,14,56.2,16.6C72.3,19.7,83.6,33.8,83.9,50c0.1,3,4.7,3,4.6,0c-0.3-16.1-10.1-30.6-25.4-36.2
				C48,8.2,30.4,13.1,20.1,25.6c-10.2,12.6-11.5,30.8-3,44.6c8.4,13.6,24.6,20.6,40.3,17.6C75.6,84.4,88.2,68.2,88.6,50
				C88.6,47,84,47,83.9,50z"/>
		</g>
	</g>
	<g>
		<g>
			<path class="st2" d="M26.1,39.1c4.2-0.7,8.5-1.5,12.7-2.2c2.9-0.5,1.7-5-1.2-4.5c-4.2,0.7-8.5,1.5-12.7,2.2
				C22,35.2,23.2,39.6,26.1,39.1L26.1,39.1z"/>
		</g>
	</g>
	<g>
		<g>
			<path class="st2" d="M75.1,34.6c-4.2-0.7-8.5-1.5-12.7-2.2c-2.9-0.5-4.2,3.9-1.2,4.5c4.2,0.7,8.5,1.5,12.7,2.2
				C76.8,39.6,78,35.2,75.1,34.6L75.1,34.6z"/>
		</g>
	</g>
	<ellipse class="st2" cx="50" cy="59.9" rx="17.5" ry="12.6"/>
</g>
</svg>
