<?xml version="1.0" encoding="utf-8"?>
<!-- Generator: Adobe Illustrator 27.7.0, SVG Export Plug-In . SVG Version: 6.00 Build 0)  -->
<svg version="1.1" xmlns="http://www.w3.org/2000/svg" xmlns:xlink="http://www.w3.org/1999/xlink" x="0px" y="0px"
	 viewBox="0 0 100 100" style="enable-background:new 0 0 100 100;" xml:space="preserve">
<style type="text/css">
	.st0{display:none;}
	.st1{display:inline;fill:#ED2024;}
	.st2{fill:#FFFFFF;}
</style>
<g id="Layer_2" class="st0">
	<rect x="-619" y="-36.4" class="st1" width="770.3" height="288"/>
</g>
<g id="Layer_1">
	<g>
		<circle class="st2" cx="63.5" cy="41.6" r="4.9"/>
	</g>
	<g>
		<g>
			<path class="st2" d="M74.4,32.3c-4.2-0.7-8.5-1.5-12.7-2.2c-2.9-0.5-4.2,3.9-1.2,4.5c4.2,0.7,8.5,1.5,12.7,2.2
				C76.1,37.3,77.4,32.8,74.4,32.3L74.4,32.3z"/>
		</g>
	</g>
	<g>
		<circle class="st2" cx="36.5" cy="41.6" r="4.9"/>
	</g>
	<g>
		<g>
			<path class="st2" d="M26.8,36.8c4.2-0.7,8.5-1.5,12.7-2.2c2.9-0.5,1.7-5-1.2-4.5c-4.2,0.7-8.5,1.5-12.7,2.2
				C22.6,32.8,23.9,37.3,26.8,36.8L26.8,36.8z"/>
		</g>
	</g>
	<g>
		<g>
			<path class="st2" d="M83.9,50c-0.3,14.2-9,27.2-22.6,32c-13.1,4.6-28,0.6-37.1-9.9C14.8,61.2,13.5,45,20.8,32.7
				C28,20.6,42.4,14,56.2,16.6C72.3,19.7,83.6,33.8,83.9,50c0.1,3,4.7,3,4.6,0c-0.3-16.1-10.1-30.6-25.4-36.2
				C48,8.2,30.4,13.1,20.1,25.6c-10.2,12.6-11.5,30.8-3,44.6c8.4,13.6,24.6,20.6,40.3,17.6C75.6,84.4,88.2,68.2,88.6,50
				C88.6,47,84,47,83.9,50z"/>
		</g>
	</g>
	<g>
		<g>
			<path class="st2" d="M31.1,57.9c4.6,6.1,10.9,11,18.9,11c8,0,14.3-5,18.9-11c1.8-2.4-2.2-4.7-4-2.3c-8.4,11-21.4,11.1-29.8,0
				C33.3,53.3,29.3,55.6,31.1,57.9L31.1,57.9z"/>
		</g>
	</g>
	<path class="st2" d="M58.4,64.8c-1.2,7.8-4.5,13.3-8.4,13.3c-3.9,0-7.2-5.6-8.4-13.3c2.7,1.2,5.5,1.9,8.4,1.9
		C52.9,66.6,55.8,66,58.4,64.8z"/>
</g>
</svg>
