<?xml version="1.0" encoding="utf-8"?>
<!-- Generator: Adobe Illustrator 27.7.0, SVG Export Plug-In . SVG Version: 6.00 Build 0)  -->
<svg version="1.1" xmlns="http://www.w3.org/2000/svg" xmlns:xlink="http://www.w3.org/1999/xlink" x="0px" y="0px"
	 viewBox="0 0 100 100" style="enable-background:new 0 0 100 100;" xml:space="preserve">
<style type="text/css">
	.st0{display:none;}
	.st1{display:inline;fill:#ED2024;}
	.st2{fill:#FFFFFF;}
</style>
<g id="Layer_2" class="st0">
	<rect x="-497.5" y="-164.4" class="st1" width="770.3" height="288"/>
</g>
<g id="Layer_1">
	<g>
		<g>
			<path class="st2" d="M83.9,50c-0.3,14.2-9,27.2-22.6,32c-13.1,4.6-28,0.6-37.1-9.9C14.8,61.2,13.5,45,20.8,32.7
				C28,20.6,42.4,14,56.2,16.6C72.3,19.7,83.6,33.8,83.9,50c0.1,3,4.7,3,4.6,0c-0.3-16.1-10.1-30.6-25.4-36.2
				C48,8.2,30.4,13.1,20.1,25.6c-10.2,12.6-11.5,30.8-3,44.6c8.4,13.6,24.6,20.6,40.3,17.6C75.6,84.4,88.2,68.2,88.6,50
				C88.6,47,84,47,83.9,50z"/>
		</g>
	</g>
	<g>
		<circle class="st2" cx="64.1" cy="43.9" r="4.9"/>
	</g>
	<g>
		<g>
			<path class="st2" d="M72,34.9c-3.1-1.1-6.3-2.2-9.4-3.3c-2.8-1-4,3.5-1.2,4.5c3.1,1.1,6.3,2.2,9.4,3.3
				C73.6,40.4,74.8,35.9,72,34.9L72,34.9z"/>
		</g>
	</g>
	<g>
		<circle class="st2" cx="35.9" cy="43.9" r="4.9"/>
	</g>
	<g>
		<g>
			<path class="st2" d="M29.2,39.4c3.1-1.1,6.3-2.2,9.4-3.3c2.8-1,1.6-5.5-1.2-4.5c-3.1,1.1-6.3,2.2-9.4,3.3
				C25.2,35.9,26.4,40.4,29.2,39.4L29.2,39.4z"/>
		</g>
	</g>
	<g>
		<g>
			<path class="st2" d="M52.3,70c4.3-3.2,8.6-6.4,12.8-9.6c2.4-1.8,0.1-5.8-2.3-4c-4.3,3.2-8.6,6.4-12.8,9.6
				C47.6,67.7,49.9,71.8,52.3,70L52.3,70z"/>
		</g>
	</g>
</g>
</svg>
