<?xml version="1.0" encoding="utf-8"?>
<!-- Generator: Adobe Illustrator 27.7.0, SVG Export Plug-In . SVG Version: 6.00 Build 0)  -->
<svg version="1.1" xmlns="http://www.w3.org/2000/svg" xmlns:xlink="http://www.w3.org/1999/xlink" x="0px" y="0px"
	 viewBox="0 0 100 100" style="enable-background:new 0 0 100 100;" xml:space="preserve">
<style type="text/css">
	.st0{display:none;}
	.st1{display:inline;fill:#ED2024;}
	.st2{fill:#FFFFFF;}
</style>
<g id="Layer_2" class="st0">
	<rect x="-19.4" y="-164.4" class="st1" width="770.3" height="288"/>
</g>
<g id="Layer_1">
	<g>
		<g>
			<path class="st2" d="M83.9,50c-0.3,14.2-9,27.2-22.6,32c-13.1,4.6-28,0.6-37.1-9.9C14.8,61.2,13.5,45,20.8,32.7
				C28,20.6,42.4,14,56.2,16.6C72.3,19.7,83.6,33.8,83.9,50c0.1,3,4.7,3,4.6,0c-0.3-16.1-10.1-30.6-25.4-36.2
				C48,8.2,30.4,13.1,20.1,25.6c-10.2,12.6-11.5,30.8-3,44.6c8.4,13.6,24.6,20.6,40.3,17.6C75.6,84.4,88.2,68.2,88.6,50
				C88.6,47,84,47,83.9,50z"/>
		</g>
	</g>
	<g>
		<g>
			<path class="st2" d="M68.2,57.4c-10.4,11.8-25.9,11.8-36.3,0c-2-2.2-5.2,1-3.3,3.3c12,13.6,30.8,13.6,42.9,0
				C73.4,58.5,70.1,55.2,68.2,57.4L68.2,57.4z"/>
		</g>
	</g>
	<g>
		<g>
			<g>
				<path class="st2" d="M43.6,35.1c-0.5-1.3-1.7-2.4-3.3-2.7c-0.1,0-0.1,0-0.2,0c-1.6-0.1-3.2,0.7-4.1,2.1
					c-0.2-0.3-0.5-0.6-0.8-0.9c-0.8-0.8-1.9-1.2-3.1-1.2c-0.2,0-0.3,0-0.5,0c-1.6,0.2-2.8,1.4-3.3,2.6c-0.6,1.4-0.2,2.7,0,3.3
					c0.5,1.5,1.5,2.3,2.6,3.3c0.7,0.6,0.7,0.5,2.6,2c0.6,0.5,1.4,0.9,1.9,1.5c0.1,0.1,0.3,0.3,0.4,0.4c0,0,0,0,0,0.1c0,0,0,0,0-0.1
					c0.6-0.8,1.5-1.3,2.3-1.9c1.9-1.5,1.9-1.4,2.7-2c1.2-1,2.2-1.8,2.7-3.3C43.8,37.8,44.2,36.5,43.6,35.1z"/>
			</g>
		</g>
		<g>
			<g>
				<path class="st2" d="M71.7,35.1c-0.5-1.3-1.7-2.4-3.3-2.7c-0.1,0-0.1,0-0.2,0c-1.6-0.1-3.2,0.7-4.1,2.1
					c-0.2-0.3-0.5-0.6-0.8-0.9c-0.8-0.8-1.9-1.2-3.1-1.2c-0.2,0-0.3,0-0.5,0c-1.6,0.2-2.8,1.4-3.3,2.6c-0.6,1.4-0.2,2.7,0,3.3
					c0.5,1.5,1.5,2.3,2.6,3.3c0.7,0.6,0.7,0.5,2.6,2c0.6,0.5,1.4,0.9,1.9,1.5c0.1,0.1,0.3,0.3,0.4,0.4c0,0,0,0,0,0.1c0,0,0,0,0-0.1
					c0.6-0.8,1.5-1.3,2.3-1.9c1.9-1.5,1.9-1.4,2.7-2c1.2-1,2.2-1.8,2.7-3.3C71.8,37.8,72.2,36.5,71.7,35.1z"/>
			</g>
		</g>
	</g>
</g>
</svg>
