<?xml version="1.0" encoding="utf-8"?>
<!-- Generator: Adobe Illustrator 27.7.0, SVG Export Plug-In . SVG Version: 6.00 Build 0)  -->
<svg version="1.1" xmlns="http://www.w3.org/2000/svg" xmlns:xlink="http://www.w3.org/1999/xlink" x="0px" y="0px"
	 viewBox="0 0 100 100" style="enable-background:new 0 0 100 100;" xml:space="preserve">
<style type="text/css">
	.st0{display:none;}
	.st1{display:inline;fill:#ED2024;}
	.st2{fill:#FFFFFF;}
</style>
<g id="Layer_2" class="st0">
	<rect x="-134.4" y="-164.4" class="st1" width="770.3" height="288"/>
</g>
<g id="Layer_1">
	<g>
		<g>
			<path class="st2" d="M83.9,50c-0.3,14.2-9,27.2-22.6,32c-13.1,4.6-28,0.6-37.1-9.9C14.8,61.2,13.5,45,20.8,32.7
				C28,20.6,42.4,14,56.2,16.6C72.3,19.7,83.6,33.8,83.9,50c0.1,3,4.7,3,4.6,0c-0.3-16.1-10.1-30.6-25.4-36.2
				C48,8.2,30.4,13.1,20.1,25.6c-10.2,12.6-11.5,30.8-3,44.6c8.4,13.6,24.6,20.6,40.3,17.6C75.6,84.4,88.2,68.2,88.6,50
				C88.6,47,84,47,83.9,50z"/>
		</g>
	</g>
	<g>
		<g>
			<circle class="st2" cx="39.5" cy="40.8" r="4.9"/>
		</g>
		<g>
			<circle class="st2" cx="60.5" cy="40.8" r="4.9"/>
		</g>
		<g>
			<g>
				<path class="st2" d="M60.5,26.2c-5.3,0.3-9.4,2.6-12.5,7c1.3,0,2.7,0,4,0c-8-11.5-27.1-7.4-27.1,7.6c0,15,19.1,19.1,27.1,7.6
					c-1.3,0-2.7,0-4,0c6.3,9,19.9,9.4,25.4-0.8C78.7,37.7,71.1,26.8,60.5,26.2c-3-0.2-3,4.5,0,4.6c7.1,0.4,12.1,7.4,9,14.1
					c-3.4,7.3-13.1,7.5-17.5,1.1c-1-1.5-3-1.5-4,0c-5.5,7.9-18.5,4.8-18.5-5.2c0-10.1,13-13.2,18.5-5.2c1,1.5,3,1.5,4,0
					c2.1-3,4.9-4.5,8.5-4.7C63.4,30.7,63.5,26,60.5,26.2z"/>
			</g>
		</g>
	</g>
	<g>
		<g>
			<path class="st2" d="M60.9,64.1c-7.3,0-14.5,0-21.8,0c-3,0-3,4.6,0,4.6c7.3,0,14.5,0,21.8,0C63.9,68.7,63.9,64.1,60.9,64.1
				L60.9,64.1z"/>
		</g>
	</g>
</g>
</svg>
