<?xml version="1.0" encoding="utf-8"?>
<!-- Generator: Adobe Illustrator 27.7.0, SVG Export Plug-In . SVG Version: 6.00 Build 0)  -->
<svg version="1.1" id="Layer_1" xmlns="http://www.w3.org/2000/svg" xmlns:xlink="http://www.w3.org/1999/xlink" x="0px" y="0px"
	 viewBox="0 0 100 100" style="enable-background:new 0 0 100 100;" xml:space="preserve">
<style type="text/css">
	.st0{display:none;}
	.st1{display:inline;fill:#ED2024;}
	.st2{fill:#FFFFFF;}
</style>
<g id="Layer_2_00000003067588806376973310000011960944614391550138_" class="st0">
	<rect x="-134.4" y="-36.4" class="st1" width="770.3" height="288"/>
</g>
<g id="Layer_1_00000101092647987742155540000001253421419003420037_">
	<g>
		<g>
			<path class="st2" d="M83.9,50c-0.3,14.2-9,27.2-22.6,32c-13.1,4.6-28,0.6-37.1-9.9C14.8,61.2,13.5,45,20.8,32.7
				C28,20.6,42.4,14,56.2,16.6C72.3,19.7,83.6,33.8,83.9,50c0.1,3,4.7,3,4.6,0c-0.3-16.1-10.1-30.6-25.4-36.2
				c-15.1-5.6-32.7-0.7-43,11.8c-10.2,12.6-11.5,30.8-3,44.6c8.4,13.6,24.6,20.6,40.3,17.6C75.6,84.4,88.2,68.2,88.6,50
				C88.6,47,84,47,83.9,50z"/>
		</g>
	</g>
	<g>
		<g>
			<path class="st2" d="M39.4,39.6c-0.8,1.2-1.9,2.7-3.5,2.7s-2.7-1.4-3.5-2.6c-1.6-2.5-5.6-0.2-4,2.3c1.7,2.6,4.2,4.9,7.5,4.9
				s5.8-2.4,7.5-5C45,39.5,41,37.1,39.4,39.6L39.4,39.6z"/>
		</g>
	</g>
	<g>
		<g>
			<path class="st2" d="M56.6,42c1.7,2.6,4.2,5,7.5,5c3.3,0,5.8-2.3,7.5-4.9c1.6-2.5-2.4-4.8-4-2.3c-0.8,1.2-1.9,2.6-3.5,2.6
				s-2.7-1.5-3.5-2.7C59,37.1,55,39.5,56.6,42L56.6,42z"/>
		</g>
	</g>
	<circle class="st2" cx="50" cy="66.2" r="6.2"/>
</g>
</svg>
